<svg version="1.1" xmlns="http://www.w3.org/2000/svg" x="0" y="0" viewBox="0 0 650 118" xml:space="preserve"><path class="st0" d="m273 2-12 115H158c-22 1-33-12-32-37l8-78h29l-7 70c-2 8 1 12 8 12h15l8-82h29l-8 82h25l8-82h32zM267 116 278 1h78c23 0 33 12 32 37l-8 78h-30l7-71c2-8-1-11-8-11h-42l-9 82h-31zM389 87h74c3-1 6-4 9-8 1-4-1-7-5-7h-45l4-29h40c5 0 8-3 8-9 0-3-4-5-10-5h-70l3-28h73c24 0 35 10 35 29-1 12-6 21-13 28 10 5 13 16 10 30-5 17-19 26-42 28h-74l3-29zM516 2h78c25 1 35 20 32 57-4 37-18 56-41 57h-80L516 2zm21 85h45c4-1 8-3 10-8 3-4 4-11 5-20s1-17-2-23c-2-4-5-6-10-6h-42l-6 57zM89 0H45C19 0 5 20 1 59s6 59 30 58h54c24 0 36-20 38-60 4-38-7-57-34-57z"/><g><path class="st0" d="M639 4a9 9 0 1 1 0 19 9 9 0 0 1 0-19m0-2a11 11 0 1 0 0 23 11 11 0 0 0 0-23z"/></g><g><path class="st0" d="M643 12c0 1 0 3-2 3l3 4h-3l-2-4h-3v4h-1V8h4l3 1 1 3zm-2 1v-3h-5v4h3l2-1z"/></g><path fill="#fff" d="m27 87 9-63h18l45 27v18L36 96z"/><g><linearGradient id="SVGID_1_" gradientUnits="userSpaceOnUse" x1="218.9" y1="139.6" x2="140.6" y2="184.8" gradientTransform="matrix(-.4229 -.8496 .8568 -.5085 8 275)"><stop offset=".2" stop-color="#ff9602"/><stop offset=".8" stop-color="#ca3501"/></linearGradient><path d="m105 51-3-4c-7-5-44-29-51-31-12-3-19 7-19 7s2-3 16 5l43 26c3 3 2 7 0 11l7-5 4-2 1-1 2-4v-2z" fill="url(#SVGID_1_)"/><linearGradient id="SVGID_2_" gradientUnits="userSpaceOnUse" x1="102.2" y1="50.2" x2="24" y2="95.3" gradientTransform="translate(4) skewX(-2)"><stop offset=".2" stop-color="#ff9602"/><stop offset=".8" stop-color="#ca3501"/></linearGradient><path d="M105 51s2 3-14 12L43 88c-10 3-14-14-14-14l-3 21 1 1 1 1h1l1 1v1h2l2 2h9c8-4 52-25 58-30 9-9 4-20 4-20z" fill="url(#SVGID_2_)"/><linearGradient id="SVGID_3_" gradientUnits="userSpaceOnUse" x1="33.2" y1="101.5" x2="33.2" y2="22.1" gradientTransform="translate(4) skewX(-2)"><stop offset=".2" stop-color="#ff9602"/><stop offset=".8" stop-color="#ca3501"/></linearGradient><path d="M48 28c-13-8-15-6-16-5l-2 4c-2 9-10 54-9 61 2 12 14 13 14 13s-3 0-2-16c2-17 6-45 8-51 1-4 5-5 9-6h-2z" fill="url(#SVGID_3_)"/><g><linearGradient id="SVGID_4_" gradientUnits="userSpaceOnUse" x1="71.7" y1="42.8" x2="30" y2="66.8" gradientTransform="translate(4) skewX(-2)"><stop offset=".2" stop-color="#ff9602"/><stop offset=".8" stop-color="#ca3501"/></linearGradient><path d="m42 79 6-42 35 21-41 21z" fill="url(#SVGID_4_)"/></g></g></svg>
